<?xml version="1.0" encoding="UTF-8" standalone="no"?>
<svg
   width="50.096344mm"
   height="23.486826mm"
   viewBox="0 0 50.096344 23.486826"
   version="1.1"
   id="svg1940"
   sodipodi:docname="rocket-6972424.svg"
   xmlns:inkscape="http://www.inkscape.org/namespaces/inkscape"
   xmlns:sodipodi="http://sodipodi.sourceforge.net/DTD/sodipodi-0.dtd"
   xmlns="http://www.w3.org/2000/svg"
   xmlns:svg="http://www.w3.org/2000/svg">
  <sodipodi:namedview
     id="namedview1"
     pagecolor="#ffffff"
     bordercolor="#000000"
     borderopacity="0.25"
     inkscape:showpageshadow="2"
     inkscape:pageopacity="0.0"
     inkscape:pagecheckerboard="0"
     inkscape:deskcolor="#d1d1d1"
     inkscape:document-units="mm" />
  <title
     id="title1031">Spaceship</title>
  <defs
     id="defs1937" />
  <g
     id="layer1"
     transform="matrix(0,0.16945395,-0.16945395,0,50.12565,-6.6657971)"
     inkscape:export-filename="..\Projects\Godot\Arcade-Game\ship\tank_ship.svg"
     inkscape:export-xdpi="96"
     inkscape:export-ydpi="96">
    <g
       id="g1892"
       transform="matrix(0.16198296,-0.30406771,0.1626994,0.30272875,-22.208842,167.73633)"
       style="stroke-width:1.00092;stroke-miterlimit:4;stroke-dasharray:none">
      <g
         id="g1884"
         style="stroke-width:1.00092;stroke-miterlimit:4;stroke-dasharray:none">
        <path
           d="m 182.44377,402.77302 -20.57168,-47.51946 -47.52355,-20.5699 c 0,0 -88.825089,5.28938 -70.061943,129.4191 0.821084,5.41862 5.054087,9.65455 10.473221,10.47231 124.143602,18.7614 127.683952,-71.80205 127.683952,-71.80205 z"
           fill="#ffcd38"
           id="path1878"
           style="fill:#00aad4;stroke-width:1.00092;stroke-miterlimit:4;stroke-dasharray:none" />
        <path
           d="m 52.169673,462.53024 c 0.359375,-32.4375 18.726876,-69.80044 33.16047,-88.72231 13.0625,-17.125 29.789057,-25.78125 40.203117,-29.8086 l 33.09375,12.1211 12.1211,33.09765 c -4.02735,10.41016 -12.6836,27.13672 -29.8086,40.19922 -18.92187,14.4375 -56.32843,32.75747 -88.769837,33.11294 z"
           fill="#da5b65"
           id="path1880"
           style="fill:#00ccff;stroke-width:1.00092;stroke-miterlimit:4;stroke-dasharray:none" />
        <path
           style="fill:#80e5ff;stroke-width:1.00092;stroke-miterlimit:4;stroke-dasharray:none"
           id="path1882"
           fill="#da5b65"
           d="m 67.702724,447.0087 c 0.279848,-25.2593 14.582745,-54.35407 25.822282,-69.08866 10.171854,-13.33535 23.196944,-20.07603 31.306444,-23.21216 l 25.77032,9.43878 9.43879,25.77337 c -3.13613,8.10646 -9.87681,21.13154 -23.21216,31.3034 -14.73459,11.24258 -43.863333,25.50846 -69.125676,25.78527 z" />
      </g>
      <path
         id="path1886"
         fill="#3c474d"
         d="m 142.54279,302.13549 c 0,0 -16.34766,-2.01563 -32.30078,2.19922 -11.007808,2.91015 -14.636718,16.75 -6.58594,24.80078 l 82.69531,82.69531 c 8.05469,8.05469 21.89063,4.42578 24.80078,-6.58594 4.21485,-15.94922 2.20313,-32.29687 2.20313,-32.29687 z"
         style="stroke-width:1.00092;stroke-miterlimit:4;stroke-dasharray:none" />
      <path
         d="m 142.54279,302.13549 c 0,0 -16.34766,-2.01563 -32.30078,2.19922 -11.007808,2.91015 -14.636718,16.75 -6.58594,24.80078 l 82.69531,82.69531 c 8.05469,8.05469 21.89063,4.42578 24.80078,-6.58594 4.21485,-15.94922 2.20313,-32.29687 2.20313,-32.29687 z"
         fill="#3c474d"
         id="path1888"
         style="fill:#666666;stroke-width:1.00092;stroke-miterlimit:4;stroke-dasharray:none" />
      <path
         id="path1890"
         fill="#3c474d"
         d="m 148.69017,308.44845 c 0,0 -15.76419,0.69072 -32.15838,7.44163 -11.31244,4.66003 -17.147166,18.85804 -10.53743,25.45615 l 67.89331,67.774 c 6.61294,6.60134 20.82707,0.77247 25.49193,-10.52794 6.75636,-16.36733 7.44803,-32.10855 7.44803,-32.10855 z"
         style="fill:#333333;stroke-width:1.00092;stroke-miterlimit:4;stroke-dasharray:none" />
    </g>
    <g
       transform="matrix(1.1351051,0,0,1.0968085,2.3054015,-1.0746584)"
       id="g1736">
      <path
         style="stroke-width:0.282255"
         d="m 55.88572,94.088958 c -0.381061,9.716592 -21.401223,33.175932 -23.23063,85.621692 19.728972,0.0598 29.803067,-0.0331 29.803067,-0.0331 l 0.0429,-35.55429 0.0207,-58.017507 c 0,0 -6.254972,-1.733421 -6.636036,7.983175 z"
         fill="#d4d2d3"
         id="path1654" />
      <path
         d="m 61.99368,179.61138 0.02807,20.02775 -21.666616,0.0733 c -4.726283,0.016 -7.514689,-8.21793 -7.699546,-13.35235 -0.07709,-2.14109 0.01196,-4.4322 -4.98e-4,-6.64945 z"
         fill="#3c474d"
         id="path1672"
         style="stroke-width:0.33569" />
    </g>
    <g
       style="stroke-width:1.00092;stroke-miterlimit:4;stroke-dasharray:none"
       transform="matrix(0.16198296,-0.30406771,0.1626994,0.30272875,74.22516,167.66331)"
       id="g1956">
      <g
         style="stroke-width:1.00092;stroke-miterlimit:4;stroke-dasharray:none"
         id="g1948">
        <path
           style="fill:#00aad4;stroke-width:1.00092;stroke-miterlimit:4;stroke-dasharray:none"
           id="path1942"
           fill="#ffcd38"
           d="m 182.44377,402.77302 -20.57168,-47.51946 -47.52355,-20.5699 c 0,0 -88.825089,5.28938 -70.061943,129.4191 0.821084,5.41862 5.054087,9.65455 10.473221,10.47231 124.143602,18.7614 127.683952,-71.80205 127.683952,-71.80205 z" />
        <path
           style="fill:#00ccff;stroke-width:1.00092;stroke-miterlimit:4;stroke-dasharray:none"
           id="path1944"
           fill="#da5b65"
           d="m 52.169673,462.53024 c 0.359375,-32.4375 18.726876,-69.80044 33.16047,-88.72231 13.0625,-17.125 29.789057,-25.78125 40.203117,-29.8086 l 33.09375,12.1211 12.1211,33.09765 c -4.02735,10.41016 -12.6836,27.13672 -29.8086,40.19922 -18.92187,14.4375 -56.32843,32.75747 -88.769837,33.11294 z" />
        <path
           d="m 67.702724,447.0087 c 0.279848,-25.2593 14.582745,-54.35407 25.822282,-69.08866 10.171854,-13.33535 23.196944,-20.07603 31.306444,-23.21216 l 25.77032,9.43878 9.43879,25.77337 c -3.13613,8.10646 -9.87681,21.13154 -23.21216,31.3034 -14.73459,11.24258 -43.863333,25.50846 -69.125676,25.78527 z"
           fill="#da5b65"
           id="path1946"
           style="fill:#80e5ff;stroke-width:1.00092;stroke-miterlimit:4;stroke-dasharray:none" />
      </g>
      <path
         style="stroke-width:1.00092;stroke-miterlimit:4;stroke-dasharray:none"
         d="m 142.54279,302.13549 c 0,0 -16.34766,-2.01563 -32.30078,2.19922 -11.007808,2.91015 -14.636718,16.75 -6.58594,24.80078 l 82.69531,82.69531 c 8.05469,8.05469 21.89063,4.42578 24.80078,-6.58594 4.21485,-15.94922 2.20313,-32.29687 2.20313,-32.29687 z"
         fill="#3c474d"
         id="path1950" />
      <path
         style="fill:#666666;stroke-width:1.00092;stroke-miterlimit:4;stroke-dasharray:none"
         id="path1952"
         fill="#3c474d"
         d="m 142.54279,302.13549 c 0,0 -16.34766,-2.01563 -32.30078,2.19922 -11.007808,2.91015 -14.636718,16.75 -6.58594,24.80078 l 82.69531,82.69531 c 8.05469,8.05469 21.89063,4.42578 24.80078,-6.58594 4.21485,-15.94922 2.20313,-32.29687 2.20313,-32.29687 z" />
      <path
         style="fill:#333333;stroke-width:1.00092;stroke-miterlimit:4;stroke-dasharray:none"
         d="m 148.69017,308.44845 c 0,0 -15.76419,0.69072 -32.15838,7.44163 -11.31244,4.66003 -17.147166,18.85804 -10.53743,25.45615 l 67.89331,67.774 c 6.61294,6.60134 20.82707,0.77247 25.49193,-10.52794 6.75636,-16.36733 7.44803,-32.10855 7.44803,-32.10855 z"
         fill="#3c474d"
         id="path1954" />
    </g>
    <g
       transform="matrix(-1.1351051,0,0,1.0968085,214.97138,-1.0746584)"
       id="g1753">
      <path
         id="path1749"
         fill="#d4d2d3"
         d="m 55.88572,94.088958 c -0.381061,9.716592 -21.401223,33.175932 -23.23063,85.621692 19.728972,0.0598 29.803067,-0.0331 29.803067,-0.0331 l 0.0429,-35.55429 0.0207,-58.017507 c 0,0 -6.254972,-1.733421 -6.636036,7.983175 z"
         style="stroke-width:0.282255" />
      <path
         style="stroke-width:0.33569"
         id="path1751"
         fill="#3c474d"
         d="m 61.99368,179.61138 0.02807,20.02775 -21.666616,0.0733 c -4.726283,0.016 -7.514689,-8.21793 -7.699546,-13.35235 -0.07709,-2.14109 0.01196,-4.4322 -4.98e-4,-6.64945 z" />
    </g>
    <path
       style="fill:#e6e6e6;stroke-width:0.374561"
       id="path1658"
       fill="#efedee"
       d="m 112.32983,1.5039846 c -1.96858,-1.78309199 -4.44616,-1.77372999 -6.4094,0.02222 C 97.042047,9.6225766 72.776201,34.217537 72.816114,61.018736 L 73.008829,189.85011 145.80201,189.61337 145.61016,60.780734 C 145.57025,33.979538 121.23222,9.5447426 112.32983,1.5039846 Z" />
    <g
       id="g1972"
       transform="matrix(0.26187532,-0.30158208,0.26303356,0.30025408,-25.409813,168.45609)"
       style="stroke-width:1.00092;stroke-miterlimit:4;stroke-dasharray:none">
      <g
         id="g1964"
         style="stroke-width:1.00092;stroke-miterlimit:4;stroke-dasharray:none">
        <path
           d="m 182.44377,402.77302 -20.57168,-47.51946 -47.52355,-20.5699 c 0,0 -88.825089,5.28938 -70.061943,129.4191 0.821084,5.41862 5.054087,9.65455 10.473221,10.47231 124.143602,18.7614 127.683952,-71.80205 127.683952,-71.80205 z"
           fill="#ffcd38"
           id="path1958"
           style="fill:#00aad4;stroke-width:1.00092;stroke-miterlimit:4;stroke-dasharray:none" />
        <path
           d="m 52.169673,462.53024 c 0.359375,-32.4375 18.726876,-69.80044 33.16047,-88.72231 13.0625,-17.125 29.789057,-25.78125 40.203117,-29.8086 l 33.09375,12.1211 12.1211,33.09765 c -4.02735,10.41016 -12.6836,27.13672 -29.8086,40.19922 -18.92187,14.4375 -56.32843,32.75747 -88.769837,33.11294 z"
           fill="#da5b65"
           id="path1960"
           style="fill:#00ccff;stroke-width:1.00092;stroke-miterlimit:4;stroke-dasharray:none" />
        <path
           style="fill:#80e5ff;stroke-width:1.00092;stroke-miterlimit:4;stroke-dasharray:none"
           id="path1962"
           fill="#da5b65"
           d="m 67.702724,447.0087 c 0.279848,-25.2593 14.582745,-54.35407 25.822282,-69.08866 10.171854,-13.33535 23.196944,-20.07603 31.306444,-23.21216 l 25.77032,9.43878 9.43879,25.77337 c -3.13613,8.10646 -9.87681,21.13154 -23.21216,31.3034 -14.73459,11.24258 -43.863333,25.50846 -69.125676,25.78527 z" />
      </g>
      <path
         id="path1966"
         fill="#3c474d"
         d="m 142.54279,302.13549 c 0,0 -16.34766,-2.01563 -32.30078,2.19922 -11.007808,2.91015 -14.636718,16.75 -6.58594,24.80078 l 82.69531,82.69531 c 8.05469,8.05469 21.89063,4.42578 24.80078,-6.58594 4.21485,-15.94922 2.20313,-32.29687 2.20313,-32.29687 z"
         style="stroke-width:1.00092;stroke-miterlimit:4;stroke-dasharray:none" />
      <path
         d="m 142.54279,302.13549 c 0,0 -16.34766,-2.01563 -32.30078,2.19922 -11.007808,2.91015 -14.636718,16.75 -6.58594,24.80078 l 82.69531,82.69531 c 8.05469,8.05469 21.89063,4.42578 24.80078,-6.58594 4.21485,-15.94922 2.20313,-32.29687 2.20313,-32.29687 z"
         fill="#3c474d"
         id="path1968"
         style="fill:#666666;stroke-width:1.00092;stroke-miterlimit:4;stroke-dasharray:none" />
      <path
         id="path1970"
         fill="#3c474d"
         d="m 148.69017,308.44845 c 0,0 -15.76419,0.69072 -32.15838,7.44163 -11.31244,4.66003 -17.147166,18.85804 -10.53743,25.45615 l 67.89331,67.774 c 6.61294,6.60134 20.82707,0.77247 25.49193,-10.52794 6.75636,-16.36733 7.44803,-32.10855 7.44803,-32.10855 z"
         style="fill:#333333;stroke-width:1.00092;stroke-miterlimit:4;stroke-dasharray:none" />
    </g>
    <path
       id="rect1744"
       style="fill:#3c474d;stroke:#000000;stroke-width:0"
       d="m 74.552834,189.62157 h 70.512946 c 1.26951,0 2.29154,1.11406 2.29154,2.49789 v 26.64763 c 0,1.38383 -1.02203,2.49789 -2.29154,2.49789 H 74.552834 c -1.269513,0 -2.29154,-1.11406 -2.29154,-2.49789 v -26.64763 c 0,-1.38383 1.022027,-2.49789 2.29154,-2.49789 z" />
    <path
       d="m 111.69935,10.353541 c -1.78137,-1.6130064 -4.02334,-1.6045374 -5.79989,0.0201 -8.034073,7.324079 -29.992318,29.57298 -29.956201,53.817673 49.374821,-0.358701 27.489821,-0.412449 65.871581,-0.215298 -0.0361,-24.244688 -22.05968,-46.348701 -30.11549,-53.622471 z"
       fill="#efedee"
       id="path1876"
       style="fill:#374548;stroke-width:0.338886" />
    <path
       id="rect1874"
       style="fill:#666666;stroke-width:0.403022"
       d="m 93.659702,118.86643 h 32.617788 c 1.12643,0 2.03328,1.09017 2.03328,2.44432 v 50.25196 c 0,1.35415 -0.90685,2.44432 -2.03328,2.44432 H 93.659702 c -1.126441,0 -2.033287,-1.09017 -2.033287,-2.44432 v -50.25196 c 0,-1.35415 0.906846,-2.44432 2.033287,-2.44432 z" />
    <path
       id="rect2114"
       style="fill:#b3b3b3;stroke-width:0.347164"
       d="m 95.906215,122.70634 h 28.124755 c 0.96956,0 1.7501,0.93834 1.7501,2.10389 v 43.25301 c 0,1.16554 -0.78054,2.10388 -1.7501,2.10388 H 95.906215 c -0.969546,0 -1.750095,-0.93834 -1.750095,-2.10388 v -43.25301 c 0,-1.16555 0.780549,-2.10389 1.750095,-2.10389 z" />
    <path
       d="m 110.66063,225.54795 c -0.24898,-0.22544 -0.56233,-0.22426 -0.81063,0.003 -1.1229,1.02367 -4.19195,4.13334 -4.1869,7.52196 6.90099,-0.0501 3.84218,-0.0577 9.20669,-0.0301 -0.005,-3.38862 -3.08322,-6.47804 -4.20916,-7.49467 z"
       fill="#efedee"
       id="path2607"
       style="fill:#374548;stroke-width:0.0473652" />
    <path
       d="m 159.29315,225.54795 c -0.24898,-0.22544 -0.56233,-0.22426 -0.81063,0.003 -1.1229,1.02367 -4.19195,4.13334 -4.1869,7.52196 6.90099,-0.0501 3.84218,-0.0577 9.20669,-0.0301 -0.005,-3.38862 -3.08322,-6.47804 -4.20916,-7.49467 z"
       fill="#efedee"
       id="path2609"
       style="fill:#374548;stroke-width:0.0473652" />
    <path
       d="m 61.078821,225.54795 c -0.24898,-0.22544 -0.56233,-0.22426 -0.81063,0.003 -1.1229,1.02367 -4.19195,4.13334 -4.1869,7.52196 6.90099,-0.0501 3.84218,-0.0577 9.20669,-0.0301 -0.005,-3.38862 -3.08322,-6.47804 -4.20916,-7.49467 z"
       fill="#efedee"
       id="path2611"
       style="fill:#374548;stroke-width:0.0473652" />
  </g>
  <metadata
     id="metadata1029" />
</svg>
